<svg width="22" height="22" viewBox="0 0 22 22" fill="none" xmlns="http://www.w3.org/2000/svg">
<path d="M11.8333 1C11.3731 1 11 1.37309 11 1.83333V10.1667H1.83333C1.37313 10.1667 1 10.5398 1 11C1 11.4602 1.37313 11.8333 1.83333 11.8333H11V20.1667C11 20.6269 11.3731 21 11.8333 21C12.2935 21 12.6667 20.6269 12.6667 20.1667V11.8333H20.1667C20.6269 11.8333 21 11.4602 21 11C21 10.5398 20.6269 10.1667 20.1667 10.1667H12.6667V1.83333C12.6667 1.37309 12.2935 1 11.8333 1Z" fill="white" fill-opacity="0.5"/>
<path d="M11.8333 0.8C11.2627 0.8 10.8 1.26263 10.8 1.83333V9.96667H1.83333C1.26268 9.96667 0.8 10.4293 0.8 11C0.8 11.5707 1.26268 12.0333 1.83333 12.0333H10.8V20.1667C10.8 20.7374 11.2627 21.2 11.8333 21.2C12.404 21.2 12.8667 20.7374 12.8667 20.1667V12.0333H20.1667C20.7373 12.0333 21.2 11.5707 21.2 11C21.2 10.4293 20.7373 9.96667 20.1667 9.96667H12.8667V1.83333C12.8667 1.26263 12.404 0.8 11.8333 0.8Z" stroke="white" stroke-opacity="0.5" stroke-width="0.4"/>
</svg>
