<svg width="62" height="57" viewBox="0 0 62 57" fill="none" xmlns="http://www.w3.org/2000/svg">
<path fill-rule="evenodd" clip-rule="evenodd" d="M0 2.60717H9.5541C10.7738 -0.869058 14.4328 -0.869058 15.6525 2.60717H18.9049C19.9213 -0.869058 23.5803 -0.869058 24.8 2.60717H28.0525C29.2721 -0.869058 32.9311 -0.869058 33.9475 2.60717H37.2C38.4197 -0.869058 42.0787 -0.869058 43.2984 2.60717H46.5508C47.5672 -0.869058 51.2262 -0.869058 52.4459 2.60717H62V57H0V2.60717ZM3.45574 11.809H58.7475V53.5238H3.45574V11.809ZM41.0623 15.2852C39.2328 15.2852 37.4033 15.2852 35.5738 15.2852C35.5738 17.1256 35.5738 18.9659 35.5738 20.8063C37.4033 20.8063 39.2328 20.8063 41.0623 20.8063C41.0623 18.9659 41.0623 17.1256 41.0623 15.2852ZM48.5836 44.5265C46.7541 44.5265 44.9246 44.5265 43.0951 44.5265C43.0951 46.3668 43.0951 48.2072 43.0951 50.252C44.9246 50.252 46.7541 50.252 48.5836 50.252C48.5836 48.2072 48.5836 46.3668 48.5836 44.5265ZM11.7902 44.5265C9.96066 44.5265 7.92787 44.5265 6.09836 44.5265C6.09836 46.3668 6.09836 48.2072 6.09836 50.252C7.92787 50.252 9.96066 50.252 11.7902 50.252C11.7902 48.2072 11.7902 46.3668 11.7902 44.5265ZM19.1082 44.5265C17.2787 44.5265 15.4492 44.5265 13.6197 44.5265C13.6197 46.3668 13.6197 48.2072 13.6197 50.252C15.4492 50.252 17.2787 50.252 19.1082 50.252C19.1082 48.2072 19.1082 46.3668 19.1082 44.5265ZM26.4262 44.5265C24.5967 44.5265 22.7672 44.5265 20.9377 44.5265C20.9377 46.3668 20.9377 48.2072 20.9377 50.252C22.7672 50.252 24.5967 50.252 26.4262 50.252C26.4262 48.2072 26.4262 46.3668 26.4262 44.5265ZM33.7443 44.5265C31.9148 44.5265 30.0852 44.5265 28.2557 44.5265C28.2557 46.3668 28.2557 48.2072 28.2557 50.252C30.0852 50.252 31.9148 50.252 33.7443 50.252C33.7443 48.2072 33.7443 46.3668 33.7443 44.5265ZM41.0623 44.5265C39.2328 44.5265 37.4033 44.5265 35.5738 44.5265C35.5738 46.3668 35.5738 48.2072 35.5738 50.252C37.4033 50.252 39.2328 50.252 41.0623 50.252C41.0623 48.2072 41.0623 46.3668 41.0623 44.5265ZM41.0623 37.165C39.2328 37.165 37.4033 37.165 35.5738 37.165C35.5738 39.2099 35.5738 41.0502 35.5738 42.8906C37.4033 42.8906 39.2328 42.8906 41.0623 42.8906C41.0623 41.0502 41.0623 39.2099 41.0623 37.165ZM33.7443 37.165C31.9148 37.165 30.0852 37.165 28.2557 37.165C28.2557 39.2099 28.2557 41.0502 28.2557 42.8906C30.0852 42.8906 31.9148 42.8906 33.7443 42.8906C33.7443 41.0502 33.7443 39.2099 33.7443 37.165ZM26.4262 37.165C24.5967 37.165 22.7672 37.165 20.9377 37.165C20.9377 39.2099 20.9377 41.0502 20.9377 42.8906C22.7672 42.8906 24.5967 42.8906 26.4262 42.8906C26.4262 41.0502 26.4262 39.2099 26.4262 37.165ZM19.1082 37.165C17.2787 37.165 15.4492 37.165 13.6197 37.165C13.6197 39.2099 13.6197 41.0502 13.6197 42.8906C15.4492 42.8906 17.2787 42.8906 19.1082 42.8906C19.1082 41.0502 19.1082 39.2099 19.1082 37.165ZM11.7902 37.165C9.96066 37.165 7.92787 37.165 6.09836 37.165C6.09836 39.2099 6.09836 41.0502 6.09836 42.8906C7.92787 42.8906 9.96066 42.8906 11.7902 42.8906C11.7902 41.0502 11.7902 39.2099 11.7902 37.165ZM55.9016 37.165C54.0721 37.165 52.2426 37.165 50.4131 37.165C50.4131 39.2099 50.4131 41.0502 50.4131 42.8906C52.2426 42.8906 54.0721 42.8906 55.9016 42.8906C55.9016 41.0502 55.9016 39.2099 55.9016 37.165ZM48.5836 37.165C46.7541 37.165 44.9246 37.165 43.0951 37.165C43.0951 39.2099 43.0951 41.0502 43.0951 42.8906C44.9246 42.8906 46.7541 42.8906 48.5836 42.8906C48.5836 41.0502 48.5836 39.2099 48.5836 37.165ZM41.0623 30.0081C39.2328 30.0081 37.4033 30.0081 35.5738 30.0081C35.5738 31.8484 35.5738 33.6888 35.5738 35.5291C37.4033 35.5291 39.2328 35.5291 41.0623 35.5291C41.0623 33.6888 41.0623 31.8484 41.0623 30.0081ZM33.7443 30.0081C31.9148 30.0081 30.0852 30.0081 28.2557 30.0081C28.2557 31.8484 28.2557 33.6888 28.2557 35.5291C30.0852 35.5291 31.9148 35.5291 33.7443 35.5291C33.7443 33.6888 33.7443 31.8484 33.7443 30.0081ZM26.4262 30.0081C24.5967 30.0081 22.7672 30.0081 20.9377 30.0081C20.9377 31.8484 20.9377 33.6888 20.9377 35.5291C22.7672 35.5291 24.5967 35.5291 26.4262 35.5291C26.4262 33.6888 26.4262 31.8484 26.4262 30.0081ZM19.1082 30.0081C17.2787 30.0081 15.4492 30.0081 13.6197 30.0081C13.6197 31.8484 13.6197 33.6888 13.6197 35.5291C15.4492 35.5291 17.2787 35.5291 19.1082 35.5291C19.1082 33.6888 19.1082 31.8484 19.1082 30.0081ZM11.7902 30.0081C9.96066 30.0081 7.92787 30.0081 6.09836 30.0081C6.09836 31.8484 6.09836 33.6888 6.09836 35.5291C7.92787 35.5291 9.96066 35.5291 11.7902 35.5291C11.7902 33.6888 11.7902 31.8484 11.7902 30.0081ZM55.9016 30.0081C54.0721 30.0081 52.2426 30.0081 50.4131 30.0081C50.4131 31.8484 50.4131 33.6888 50.4131 35.5291C52.2426 35.5291 54.0721 35.5291 55.9016 35.5291C55.9016 33.6888 55.9016 31.8484 55.9016 30.0081ZM48.5836 30.0081C46.7541 30.0081 44.9246 30.0081 43.0951 30.0081C43.0951 31.8484 43.0951 33.6888 43.0951 35.5291C44.9246 35.5291 46.7541 35.5291 48.5836 35.5291C48.5836 33.6888 48.5836 31.8484 48.5836 30.0081ZM41.0623 22.6466C39.2328 22.6466 37.4033 22.6466 35.5738 22.6466C35.5738 24.487 35.5738 26.3274 35.5738 28.1677C37.4033 28.1677 39.2328 28.1677 41.0623 28.1677C41.0623 26.3274 41.0623 24.487 41.0623 22.6466ZM33.7443 22.6466C31.9148 22.6466 30.0852 22.6466 28.2557 22.6466C28.2557 24.487 28.2557 26.3274 28.2557 28.1677C30.0852 28.1677 31.9148 28.1677 33.7443 28.1677C33.7443 26.3274 33.7443 24.487 33.7443 22.6466ZM26.4262 22.6466C24.5967 22.6466 22.7672 22.6466 20.9377 22.6466C20.9377 24.487 20.9377 26.3274 20.9377 28.1677C22.7672 28.1677 24.5967 28.1677 26.4262 28.1677C26.4262 26.3274 26.4262 24.487 26.4262 22.6466ZM19.1082 22.6466C17.2787 22.6466 15.4492 22.6466 13.6197 22.6466C13.6197 24.487 13.6197 26.3274 13.6197 28.1677C15.4492 28.1677 17.2787 28.1677 19.1082 28.1677C19.1082 26.3274 19.1082 24.487 19.1082 22.6466ZM11.7902 22.6466C9.96066 22.6466 7.92787 22.6466 6.09836 22.6466C6.09836 24.487 6.09836 26.3274 6.09836 28.1677C7.92787 28.1677 9.96066 28.1677 11.7902 28.1677C11.7902 26.3274 11.7902 24.487 11.7902 22.6466ZM55.9016 22.6466C54.0721 22.6466 52.2426 22.6466 50.4131 22.6466C50.4131 24.487 50.4131 26.3274 50.4131 28.1677C52.2426 28.1677 54.0721 28.1677 55.9016 28.1677C55.9016 26.3274 55.9016 24.487 55.9016 22.6466ZM48.5836 22.6466C46.7541 22.6466 44.9246 22.6466 43.0951 22.6466C43.0951 24.487 43.0951 26.3274 43.0951 28.1677C44.9246 28.1677 46.7541 28.1677 48.5836 28.1677C48.5836 26.3274 48.5836 24.487 48.5836 22.6466ZM48.5836 15.2852C46.7541 15.2852 44.9246 15.2852 43.0951 15.2852C43.0951 17.1256 43.0951 18.9659 43.0951 20.8063C44.9246 20.8063 46.7541 20.8063 48.5836 20.8063C48.5836 18.9659 48.5836 17.1256 48.5836 15.2852ZM55.9016 15.2852C54.0721 15.2852 52.2426 15.2852 50.4131 15.2852C50.4131 17.1256 50.4131 18.9659 50.4131 20.8063C52.2426 20.8063 54.0721 20.8063 55.9016 20.8063C55.9016 18.9659 55.9016 17.1256 55.9016 15.2852ZM47.5672 2.60717H51.2262C50.4131 0.766816 48.5836 0.766816 47.5672 2.60717ZM48.3803 6.90135C48.5836 6.69686 48.9902 6.49238 49.3967 6.49238C50.8197 6.49238 51.6328 8.12825 50.6164 9.15067C50.0066 9.76412 48.9902 9.76412 48.3803 9.15067C47.9738 8.7417 47.9738 8.33274 47.9738 7.92377C46.7541 7.10583 45.941 5.26547 46.1443 3.6296H38.0131C38.0131 4.8565 38.4197 6.08341 39.2328 6.90135C39.4361 6.69686 39.8426 6.49238 40.2492 6.49238C41.6721 6.49238 42.282 8.12825 41.4689 9.15067C40.859 9.76412 39.6393 9.76412 39.0295 9.15067C38.8262 8.7417 38.623 8.33274 38.623 7.92377C37.4033 7.10583 36.7934 5.26547 36.9967 3.6296H28.8656C28.6623 4.8565 29.0689 6.08341 29.882 6.90135C30.2885 6.69686 30.6951 6.49238 31.1016 6.49238C32.5246 6.49238 33.1344 8.12825 32.3213 9.15067C31.7115 9.76412 30.4918 9.76412 29.882 9.15067C29.6787 8.7417 29.4754 8.33274 29.4754 7.92377C28.2557 7.10583 27.6459 5.26547 27.8492 3.6296H19.718C19.5148 4.8565 19.9213 6.08341 20.7344 6.90135C20.9377 6.69686 21.3443 6.49238 21.9541 6.49238C23.1738 6.49238 23.9869 8.12825 23.1738 9.15067C22.5639 9.76412 21.3443 9.76412 20.7344 9.15067C20.3279 8.7417 20.3279 8.33274 20.3279 7.92377C19.1082 7.10583 18.4984 5.26547 18.7016 3.6296H10.5705C10.3672 4.8565 10.7738 6.08341 11.5869 6.90135C11.7902 6.69686 12.1967 6.49238 12.6033 6.49238C14.0262 6.49238 14.8393 8.12825 13.823 9.15067C13.2131 9.76412 12.1967 9.76412 11.3836 9.15067C11.1803 8.7417 10.977 8.33274 10.977 7.92377C9.96066 7.10583 9.14754 5.26547 9.35082 3.6296H1.21967V55.7731H60.9836V3.6296H47.3639C47.1607 4.8565 47.5672 6.08341 48.3803 6.90135ZM38.4197 2.60717H42.0787C41.0623 0.766816 39.2328 0.766816 38.4197 2.60717ZM29.2721 2.60717H32.7279C31.9148 0.766816 30.0852 0.766816 29.2721 2.60717ZM20.1246 2.60717H23.5803C22.7672 0.766816 20.9377 0.766816 20.1246 2.60717ZM10.7738 2.60717H14.4328C13.6197 0.766816 11.7902 0.766816 10.7738 2.60717Z" fill="url(#paint0_linear)"/>
<defs>
<linearGradient id="paint0_linear" x1="59.4905" y1="-19.0343" x2="-311.277" y2="15.5794" gradientUnits="userSpaceOnUse">
<stop stop-color="#FF445E"/>
<stop offset="1" stop-color="#8280FF"/>
</linearGradient>
</defs>
</svg>
