<svg width="10" height="9" viewBox="0 0 10 9" fill="none" xmlns="http://www.w3.org/2000/svg">
<path d="M8.77521 7.66859C9.08645 7.97982 9.08645 8.46398 8.77521 8.77522C8.61959 8.93084 8.4294 9 8.2219 9C8.01441 9 7.82422 8.93084 7.6686 8.77522L4.50432 5.61096L1.34005 8.77522C1.18443 8.93084 0.994237 9 0.786744 9C0.579251 9 0.389057 8.93084 0.233438 8.77522C-0.0778014 8.46398 -0.0778014 7.97982 0.233438 7.66859L3.39769 4.50432L0.233438 1.34006C-0.0778014 1.02882 -0.0778014 0.544666 0.233438 0.233427C0.544677 -0.0778119 1.02881 -0.0778119 1.34005 0.233427L4.50432 3.39769L7.6686 0.233427C7.97984 -0.0778119 8.46397 -0.0778119 8.77521 0.233427C9.08645 0.544666 9.08645 1.02882 8.77521 1.34006L5.61093 4.50432L8.77521 7.66859Z" fill="#879FC4"/>
</svg>
