<svg width="22" height="21" viewBox="0 0 22 21" fill="none" xmlns="http://www.w3.org/2000/svg">
<path d="M12.8892 5.84827V3.69748C12.8892 3.23832 13.2759 2.85165 13.7351 2.85165C14.1942 2.85165 14.5809 3.23832 14.5809 3.69748V5.84827C14.5809 6.30743 14.1942 6.6941 13.7351 6.6941C13.2759 6.6941 12.8892 6.30743 12.8892 5.84827ZM13.6868 9.13493C13.9526 9.13493 14.1943 9.03828 14.3634 8.84495C14.5568 8.65161 14.6534 8.40994 14.6534 8.16827C14.6534 7.90244 14.5568 7.66077 14.3634 7.4916C14.1943 7.29827 13.9284 7.20162 13.6868 7.20162C13.4209 7.20162 13.1792 7.29827 13.0101 7.4916C12.8167 7.66077 12.7201 7.92661 12.7201 8.16827C12.7201 8.40994 12.8167 8.67578 13.0101 8.84495C13.1792 9.03828 13.4451 9.13493 13.6868 9.13493ZM20.0909 8.21659C19.3659 8.96575 18.4717 9.42491 17.4084 9.59407C16.8767 12.8324 14.6051 14.4757 11.9468 14.814V18.3665H14.0251C14.5567 18.3665 14.9917 18.8015 14.9917 19.3332C14.9917 19.8648 14.5567 20.2998 14.0251 20.2998H7.95929C7.42762 20.2998 6.99263 19.8648 6.99263 19.3332C6.99263 18.8015 7.42762 18.3665 7.95929 18.3665H10.0134V14.814C7.35512 14.4757 5.08348 12.8324 4.55182 9.59407C3.4885 9.44907 2.59434 8.98992 1.86935 8.21659C-0.112298 6.16245 -0.01565 2.65829 0.00851648 2.51329C0.0326829 2.05413 0.39518 1.69165 0.854342 1.69165H4.47931V0.966658C4.47931 0.434996 4.89015 0 5.42181 0H16.5867C17.1184 0 17.5292 0.434996 17.5292 0.966658V1.69165H21.1542C21.6133 1.69165 21.9758 2.05413 22 2.51329C21.9517 2.65829 22.0483 6.18661 20.0909 8.21659ZM3.05351 7.05659C3.44018 7.44326 3.94766 7.73327 4.43099 7.8541V3.3833H1.67601C1.77267 4.34996 2.06269 6.01744 3.05351 7.05659ZM15.5476 1.93332H6.36431V8.1924C6.36431 11.6965 8.73262 12.9291 10.9559 12.9291C13.1792 12.9291 15.5476 11.6724 15.5476 8.1924V1.93332ZM18.8583 7.05659C19.8008 6.08993 20.1392 4.59163 20.2358 3.3833H17.4809V7.8541C17.9642 7.7091 18.4717 7.44326 18.8583 7.05659Z" fill="#5A9952"/>
</svg>
