<svg width="10" height="16" viewBox="0 0 10 16" fill="none" xmlns="http://www.w3.org/2000/svg">
<path d="M5 0C2.2425 0 0 2.15409 0 4.80288C0 7.17791 1.80583 9.15109 4.16667 9.53372V12.0072H1.66667V13.6082H4.16667V16H5.83333V13.6082H8.33333V12.0072H5.83333V9.53372C8.19417 9.15029 10 7.17791 10 4.80288C10 2.15409 7.7575 0 5 0ZM5 8.0048C3.16167 8.0048 1.66667 6.56874 1.66667 4.80288C1.66667 3.03702 3.16167 1.60096 5 1.60096C6.83833 1.60096 8.33333 3.03702 8.33333 4.80288C8.33333 6.56874 6.83833 8.0048 5 8.0048Z" fill="white"/>
</svg>
