<svg width="19" height="19" viewBox="0 0 19 19" fill="none" xmlns="http://www.w3.org/2000/svg">
<g clip-path="url(#clip0)">
<path d="M12.751 0.113281H5.47558C2.5188 0.113281 0.113281 2.5188 0.113281 5.47558V12.751C0.113281 15.7078 2.5188 18.1133 5.47558 18.1133H12.751C15.7078 18.1133 18.1133 15.7078 18.1133 12.751V5.47558C18.1132 2.5188 15.7077 0.113281 12.751 0.113281ZM16.3025 12.751C16.3025 14.7124 14.7124 16.3025 12.751 16.3025H5.47558C3.51416 16.3025 1.92408 14.7124 1.92408 12.751V5.47558C1.92408 3.51412 3.51416 1.92408 5.47558 1.92408H12.751C14.7124 1.92408 16.3025 3.51412 16.3025 5.47558V12.751Z" fill="white"/>
<path d="M9.11326 4.45782C6.54625 4.45782 4.45782 6.54625 4.45782 9.11323C4.45782 11.6802 6.54625 13.7687 9.11326 13.7687C11.6803 13.7687 13.7687 11.6802 13.7687 9.11323C13.7687 6.54622 11.6803 4.45782 9.11326 4.45782ZM9.11326 11.9579C7.5422 11.9579 6.26862 10.6843 6.26862 9.11326C6.26862 7.5422 7.54223 6.26862 9.11326 6.26862C10.6843 6.26862 11.9579 7.5422 11.9579 9.11326C11.9579 10.6843 10.6843 11.9579 9.11326 11.9579Z" fill="white"/>
<path d="M13.7778 5.60828C14.3939 5.60828 14.8933 5.10883 14.8933 4.49274C14.8933 3.87664 14.3939 3.3772 13.7778 3.3772C13.1617 3.3772 12.6622 3.87664 12.6622 4.49274C12.6622 5.10883 13.1617 5.60828 13.7778 5.60828Z" fill="white"/>
</g>
<defs>
<clipPath id="clip0">
<rect width="18" height="18" fill="white" transform="translate(0.113281 0.113281)"/>
</clipPath>
</defs>
</svg>
