<svg width="22" height="19" viewBox="0 0 22 19" fill="none" xmlns="http://www.w3.org/2000/svg">
<path d="M5.68818 1.68718C5.68818 1.01231 6.21844 0.48205 6.89331 0.48205H20.2461C20.921 0.48205 21.4512 1.01231 21.4512 1.68718C21.4512 2.36205 20.921 2.8923 20.2461 2.8923H6.89331C6.21844 2.8923 5.68818 2.36205 5.68818 1.68718ZM20.2461 8.19485H6.89331C6.21844 8.19485 5.68818 8.72511 5.68818 9.39997C5.68818 10.0748 6.21844 10.6051 6.89331 10.6051H20.2461C20.921 10.6051 21.4512 10.0748 21.4512 9.39997C21.4512 8.72511 20.921 8.19485 20.2461 8.19485ZM20.2461 15.9076H6.89331C6.21844 15.9076 5.68818 16.4379 5.68818 17.1128C5.68818 17.7876 6.21844 18.3179 6.89331 18.3179H20.2461C20.921 18.3179 21.4512 17.7876 21.4512 17.1128C21.4512 16.4379 20.921 15.9076 20.2461 15.9076ZM1.68717 7.80922C0.747177 7.80922 0 8.58049 0 9.52049C0 10.4605 0.747177 11.2318 1.68717 11.2318C2.62717 11.2318 3.37435 10.4605 3.37435 9.52049C3.37435 8.58049 2.60307 7.80922 1.68717 7.80922ZM1.68717 0C0.747177 0 0 0.771274 0 1.71127C0 2.65127 0.747177 3.42254 1.68717 3.42254C2.62717 3.42254 3.37435 2.65127 3.37435 1.71127C3.37435 0.771274 2.60307 0 1.68717 0ZM1.68717 15.3774C0.747177 15.3774 0 16.1487 0 17.0887C0 18.0287 0.747177 18.7999 1.68717 18.7999C2.62717 18.7999 3.37435 18.0287 3.37435 17.0887C3.37435 16.1487 2.60307 15.3774 1.68717 15.3774Z" fill="#FB9D00"/>
</svg>
