<svg width="111" height="65" viewBox="0 0 111 65" fill="none" xmlns="http://www.w3.org/2000/svg">
<path d="M34.3069 9.93675C34.1151 10.3733 33.7721 10.6144 33.278 10.6602L33.1469 10.6642C32.3282 10.566 31.1193 10.5874 29.5204 10.7283C27.9206 10.8385 26.1636 11.0611 24.2495 11.3962C22.84 14.1463 21.4357 17.0808 20.0365 20.1998C18.6664 23.3178 17.4389 26.3239 16.354 29.2179C15.8394 30.618 15.3809 31.9394 14.9785 33.1822C14.576 34.425 14.2292 35.5738 13.9381 36.6286C13.6761 37.6825 13.4835 38.6113 13.3602 39.4149C13.2652 40.1869 13.2533 40.8026 13.3244 41.2619C13.3946 41.6904 13.4019 41.9517 13.3463 42.0457C13.3197 42.1388 13.0885 42.2074 12.6526 42.2514C12.101 42.3297 11.6347 42.3285 11.2536 42.2478C10.1402 42.0355 9.19255 41.4952 8.41057 40.6268C7.65772 39.7575 7.20631 38.7253 7.05635 37.53C6.98438 37.04 7.01261 36.4854 7.14103 35.8662C7.38843 34.2897 8.00364 32.3175 8.98666 29.9495C9.96883 27.5508 11.1227 25.0393 12.4483 22.4148C13.3046 20.7275 14.1909 19.07 15.1071 17.4424C16.0517 15.7832 16.9701 14.2325 17.8624 12.7902C17.4282 12.8957 16.9944 13.0166 16.5611 13.1528C16.1277 13.289 15.7089 13.4248 15.3047 13.5602C14.295 13.9293 13.344 14.312 12.4516 14.7083C11.5592 15.1046 10.7701 15.5439 10.0841 16.0262C9.42639 16.4769 8.88602 16.9548 8.46298 17.4599C8.06819 17.9333 7.83485 18.448 7.76295 19.004L7.6962 19.7443L6.99735 19.7656C6.53146 19.7798 6.10752 19.7311 5.72555 19.6197C5.34271 19.4775 4.98771 19.2883 4.66054 19.0522C4.33251 18.7853 4.03274 18.4867 3.76123 18.1566C3.51798 17.7948 3.33211 17.4005 3.20361 16.9737C2.91837 16.1518 2.89304 15.245 3.12764 14.2534C3.38448 13.0151 4.06698 11.8868 5.17513 10.8687C6.31154 9.81889 7.81794 8.97323 9.69434 8.33166C11.5699 7.65935 13.6103 7.15123 15.8156 6.8073C17.2663 6.57861 18.7479 6.4105 20.2604 6.30299C21.802 6.19459 23.2866 6.13407 24.7142 6.12142C26.1702 6.07715 27.555 6.09657 28.8688 6.17968C30.1817 6.23206 31.3644 6.31915 32.417 6.44097L32.4607 6.43964C32.8709 6.51946 33.2263 6.724 33.5269 7.05326C33.8558 7.3509 34.0982 7.68194 34.2541 8.04637C34.3167 8.19829 34.3646 8.35065 34.398 8.50345C34.4306 8.62552 34.4636 8.76295 34.497 8.91576C34.5081 9.31535 34.4448 9.65568 34.3069 9.93675Z" fill="#5BB6F4"/>
<path d="M40.176 29.8912C40.7506 29.5969 41.3484 29.0865 41.9692 28.36C42.5901 27.6336 43.2187 26.6608 43.8549 25.4416L44.2659 24.5062C44.4029 24.1944 44.5871 24.0042 44.8183 23.9357C45.0778 23.8355 45.2962 23.8288 45.4735 23.9157C45.6799 24.0018 45.8156 24.1668 45.8807 24.411C45.9458 24.6551 45.8957 24.9489 45.7305 25.2923C45.4291 25.9783 44.9881 26.8838 44.4075 28.009C43.8552 29.1025 43.2159 30.2141 42.4897 31.3437C42.071 32.0025 41.6077 32.6318 41.0999 33.2318C40.6212 33.8308 40.1262 34.3689 39.6149 34.8459C39.1037 35.3229 38.5753 35.7081 38.0298 36.0016C37.4834 36.2643 36.9335 36.4041 36.3803 36.4209C35.9153 36.4658 35.5063 36.4321 35.1535 36.3198C34.6541 36.1811 34.2109 35.9639 33.8238 35.668C33.4658 35.3713 33.1643 35.0113 32.9193 34.588C32.6752 34.1955 32.4885 33.7705 32.3592 33.313C32.2589 32.8545 32.187 32.3645 32.1432 31.8429L32.1316 31.4279C31.5733 32.3063 30.985 33.1548 30.3667 33.9734C29.7767 34.7605 29.17 35.4711 28.5465 36.1053C27.9513 36.708 27.3386 37.2034 26.7083 37.5918C26.1062 37.9485 25.4995 38.1361 24.888 38.1547C23.8106 38.1875 22.9443 37.9523 22.2891 37.4493C21.6339 36.9462 21.1628 36.2529 20.8759 35.3695C20.6866 34.8523 20.5829 34.2709 20.5649 33.6254C20.5169 32.9501 20.5408 32.2418 20.6367 31.5005C20.8301 30.0795 21.2116 28.6066 21.781 27.0819C22.2682 25.7442 22.8873 24.4333 23.6383 23.1491C24.3885 21.8342 25.2011 20.6712 26.0763 19.6602C26.9807 18.6482 27.9342 17.8347 28.9371 17.2197C29.9399 16.6047 30.9513 16.2971 31.9713 16.2968C32.5254 16.3108 33.053 16.4178 33.554 16.6179C34.0542 16.7873 34.515 17.1117 34.9364 17.5911C35.237 17.9203 35.5098 18.2966 35.7548 18.7198C36.0289 19.1422 36.291 19.6572 36.5411 20.2649C36.8211 19.8565 37.1165 19.4783 37.4274 19.1304C37.8504 18.6254 38.3514 18.3025 38.9304 18.1618C39.5376 17.9895 40.0904 17.9574 40.5888 18.0653C40.94 18.1161 41.2205 18.246 41.4303 18.455C41.7266 18.6306 41.9528 18.9006 42.1087 19.265C42.2046 19.5697 42.214 19.9078 42.137 20.2793C42.0591 20.6201 41.8647 20.9644 41.5538 21.3123C41.0743 21.8806 40.6392 22.4784 40.2488 23.1055C39.8865 23.7011 39.5684 24.3106 39.2944 24.9342C38.9938 25.651 38.7652 26.3347 38.6085 26.9855C38.451 27.6056 38.3637 28.1312 38.3466 28.5625C38.3329 29.1166 38.4327 29.5597 38.646 29.8916C38.7667 30.0417 38.944 30.1286 39.1778 30.1523C39.4408 30.1751 39.7735 30.088 40.176 29.8912ZM34.8043 20.6869C34.2595 19.9651 33.639 19.661 32.9428 19.7744C32.4495 19.8509 31.9326 20.1282 31.3923 20.606C30.881 21.0831 30.3869 21.6518 29.9099 22.3124C29.4055 23.0353 28.9469 23.8337 28.5342 24.7077C28.1215 25.5816 27.7815 26.4533 27.5144 27.3228C27.1376 28.4418 26.9184 29.4637 26.8568 30.3885C26.8235 31.2816 27.0141 31.845 27.4286 32.0785C27.8431 32.312 28.4366 32.1709 29.2091 31.6552C30.0364 31.0148 30.9124 30.0344 31.8373 28.7142C32.2535 27.9632 32.6551 27.2127 33.0421 26.4626C33.4292 25.7125 33.7743 25.0252 34.0774 24.4007C34.1048 24.3383 34.1326 24.2913 34.1609 24.2597C34.1883 24.1973 34.2157 24.135 34.2431 24.0726L35.1114 22.2927C35.3049 21.9176 35.3554 21.6392 35.2629 21.4574C35.1996 21.2748 35.0467 21.0179 34.8043 20.6869Z" fill="#5BB6F4"/>
<path d="M58.4677 24.0744C58.6056 23.7933 58.776 23.6343 58.979 23.5974C59.2102 23.5288 59.4145 23.538 59.5917 23.6249C59.769 23.7118 59.8902 23.8773 59.9553 24.1215C60.0487 24.334 60.0265 24.5808 59.8886 24.8618C59.6129 25.424 59.2254 26.1587 58.7261 27.066C58.2552 27.9417 57.6985 28.8816 57.0563 29.8856C56.414 30.8895 55.699 31.8957 54.9111 32.9041C54.1515 33.8809 53.3449 34.7361 52.491 35.4696C51.6372 36.2031 50.7641 36.7681 49.8718 37.1644C48.9785 37.5299 48.0917 37.603 47.2113 37.3837C46.0371 37.081 45.116 36.4476 44.4479 35.4834C43.8089 34.5184 43.3973 33.3465 43.2131 31.9677C43.028 30.5582 43.072 29.0033 43.3451 27.303C43.6173 25.5719 44.093 23.8193 44.772 22.0451C45.5598 19.9907 46.4799 17.9784 47.5323 16.0083C48.5847 14.0382 49.6723 12.2823 50.7949 10.7407C51.9467 9.19827 53.078 7.96408 54.1887 7.03815C55.3277 6.0806 56.3348 5.61928 57.2101 5.65419C58.231 5.68468 59.0292 6.09111 59.6048 6.87347C60.2094 7.65495 60.4553 8.63193 60.3423 9.8044C60.2473 10.5764 59.9939 11.4147 59.582 12.3194C59.1701 13.2241 58.6567 14.1472 58.0419 15.0888C57.4553 15.9988 56.7959 16.911 56.0637 17.8255C55.3307 18.7091 54.6105 19.5309 53.9031 20.2908C53.1949 21.0199 52.5282 21.6708 51.9031 22.2436C51.3062 22.7847 50.8219 23.184 50.4502 23.4414C50.285 23.7848 50.112 24.3746 49.9313 25.2107C49.7507 26.0468 49.6437 26.9115 49.6104 27.8047C49.6061 28.6969 49.7158 29.4935 49.9394 30.1942C50.163 30.895 50.5959 31.2664 51.2382 31.3084C51.997 31.3469 52.7477 31.0933 53.4902 30.5477C54.2609 29.9706 54.9708 29.3029 55.62 28.5449C56.2682 27.756 56.8433 26.9541 57.3451 26.139C57.846 25.2931 58.2202 24.6049 58.4677 24.0744ZM51.6267 20.1754C51.8254 19.9848 52.1504 19.6211 52.6017 19.0844C53.0813 18.5161 53.6024 17.8695 54.165 17.1449C54.7276 16.4202 55.3035 15.649 55.8927 14.8312C56.481 13.9827 56.9836 13.1983 57.4007 12.478C57.846 11.7261 58.1628 11.0705 58.3512 10.511C58.5687 9.95062 58.5875 9.58088 58.4076 9.40176C58.2278 9.22265 57.9679 9.30746 57.6279 9.6562C57.287 9.9742 56.8927 10.463 56.4448 11.1227C55.997 11.7824 55.523 12.5505 55.0229 13.4271C54.551 14.2721 54.0942 15.132 53.6523 16.0068C53.2096 16.8509 52.8093 17.6475 52.4514 18.3968C52.0934 19.146 51.8186 19.7389 51.6267 20.1754Z" fill="#5BB6F4"/>
<path d="M71.7381 6.0431C72.0439 6.55679 72.058 7.06396 71.7806 7.56462L71.7819 7.61073C71.0609 8.92474 70.342 10.3156 69.6252 11.7833C68.9085 13.251 68.1931 14.7648 67.4789 16.3247C66.793 17.853 66.1221 19.3963 65.4662 20.9544C64.8103 22.5125 64.2109 24.0074 63.668 25.4391C63.0968 26.9024 62.6238 28.2242 62.2487 29.4047C62.8019 28.3419 63.3842 27.2782 63.9956 26.2136C64.607 25.1491 65.2343 24.1301 65.8774 23.1569C67.0515 21.3677 68.2045 19.8713 69.3367 18.6678C70.497 17.4328 71.499 16.787 72.3426 16.7306C72.8958 16.7138 73.3695 16.9763 73.7635 17.518C73.8842 17.6682 73.9767 17.85 74.041 18.0633C74.1343 18.2759 74.1845 18.5051 74.1913 18.751C74.2042 19.212 74.0723 19.7083 73.7958 20.2397C73.49 20.772 72.9086 21.3434 72.0513 21.954C71.1941 22.5646 69.9429 23.1564 68.2977 23.7294C68.1976 24.3169 68.1282 24.9651 68.0897 25.6738C68.0504 26.3518 68.083 26.9969 68.1875 27.609C68.256 27.9761 68.367 28.2957 68.5203 28.5679C68.6736 28.8401 68.8826 29.0184 69.1472 29.1026C70.0002 29.3843 71.0416 29.1065 72.2714 28.2693C72.8144 27.8836 73.3543 27.3904 73.8913 26.7895C74.4273 26.1579 74.9304 25.3889 75.4006 24.4825C75.4536 24.2963 75.5221 24.1404 75.6061 24.0148C75.6891 23.8584 75.7576 23.7025 75.8116 23.547C75.9495 23.266 76.1199 23.107 76.3228 23.07C76.5541 23.0015 76.7583 23.0107 76.9356 23.0976C77.142 23.1836 77.2773 23.3333 77.3416 23.5467C77.4341 23.7284 77.4255 23.9441 77.3159 24.1935C77.0137 24.8487 76.5727 25.7543 75.9929 26.9102C75.4415 28.0345 74.789 29.1926 74.0354 30.3845C73.1396 31.7039 72.1668 32.8717 71.1169 33.8881C70.0961 34.9035 69.0179 35.4286 67.8823 35.4631C67.1261 35.5168 66.4375 35.384 65.8166 35.0644C65.313 34.7721 64.9232 34.384 64.6474 33.9002C64.4008 33.4155 64.2252 32.867 64.1206 32.2549C63.9484 31.3065 63.9646 30.3216 64.1692 29.3001C63.4482 30.6141 62.8133 31.8794 62.2644 33.0959C61.7146 34.2816 61.2925 35.3404 60.9979 36.2723C61.0365 36.6095 60.9984 36.8107 60.8836 36.8757C60.768 36.91 60.5505 36.9473 60.231 36.9878C59.7086 37.0652 59.2569 37.0636 58.8757 36.9829C57.9662 36.7644 57.2262 36.3562 56.6558 35.7583C56.0537 35.069 55.6952 34.2339 55.5804 33.2529C55.5735 33.007 55.5808 32.7453 55.6022 32.4678C55.5944 32.1912 55.615 31.8829 55.6638 31.543C55.9146 30.0895 56.4891 28.2262 57.3874 25.9531C58.2565 23.6809 59.3123 21.3107 60.5549 18.8426C61.1885 17.5312 61.8376 16.2501 62.5021 14.9994C63.1949 13.717 63.8748 12.4965 64.5419 11.338C65.209 10.1794 65.8641 9.11352 66.5072 8.14028C67.1503 7.16704 67.739 6.33389 68.2734 5.64083C68.7803 5.01014 69.4445 4.78998 70.2658 4.98035C70.5878 5.03209 70.8679 5.14663 71.106 5.32398C71.4049 5.59177 71.6156 5.83147 71.7381 6.0431Z" fill="#5BB6F4"/>
<path d="M65.8946 40.0237C66.1942 40.459 66.2364 40.9645 66.0213 41.54C65.377 42.927 64.7655 44.3573 64.1869 45.8308C63.6083 47.3043 63.1009 48.7558 62.6648 50.1853C63.3535 48.9794 64.1174 47.7975 64.9563 46.6395C65.8217 45.4481 66.7093 44.3474 67.6191 43.3371C68.5554 42.2936 69.4848 41.3433 70.4074 40.4863C71.359 39.6265 72.2799 38.924 73.17 38.3786C73.5584 38.1266 74.0466 38.0198 74.6346 38.058C74.9325 38.1231 75.2197 38.2354 75.4962 38.3951C75.8043 38.5827 76.0279 38.809 76.1671 39.074C76.4667 39.5093 76.5089 40.0148 76.2938 40.5903C75.5249 42.2358 74.8379 43.8119 74.2328 45.3188C73.6542 46.7923 73.172 48.1952 72.7863 49.5274C72.6053 50.1615 72.4402 50.8096 72.2909 51.4717C72.9062 50.0874 73.6231 48.6937 74.4415 47.2906C75.2574 45.8569 76.139 44.5097 77.0864 43.2491C78.0602 41.9551 79.0587 40.7823 80.082 39.7307C81.1343 38.6765 82.1743 37.824 83.2019 37.1733C83.5876 36.8907 83.9956 36.6986 84.4257 36.5971C84.8559 36.4956 85.2634 36.4734 85.6483 36.5304C86.0043 36.5901 86.2915 36.7025 86.5099 36.8675C86.8496 37.0831 87.0916 37.354 87.2359 37.6802C87.5244 38.3327 87.3776 39.0254 86.7955 39.7583C86.3483 40.3553 85.8981 41.0915 85.4449 41.9669C85.0182 42.809 84.6376 43.6777 84.303 44.573C83.8891 45.5682 83.5716 46.4928 83.3506 47.3468C83.1296 48.2007 83.0225 48.8434 83.0293 49.275C83.0831 49.9183 83.2218 50.3531 83.4454 50.5794C83.5769 50.7524 83.7442 50.8296 83.9473 50.8108C84.182 50.82 84.5238 50.7112 84.9727 50.4845C85.501 50.1578 86.0549 49.6127 86.6344 48.8491C87.2139 48.0855 87.7874 47.0755 88.355 45.8191C88.4267 45.6272 88.4864 45.4674 88.5342 45.3395C88.6084 45.1782 88.6682 45.0184 88.7134 44.8598C88.8568 44.4761 89.0407 44.2276 89.2652 44.1142C89.5187 43.9982 89.7376 43.9934 89.9219 44.0998C90.1037 44.1756 90.2352 44.3487 90.3162 44.619C90.3948 44.8587 90.3623 45.1704 90.219 45.5541C89.9561 46.2576 89.5661 47.1889 89.0489 48.348C88.5582 49.4738 87.9817 50.623 87.3194 51.7956C86.9379 52.4791 86.5103 53.1361 86.0367 53.7664C85.592 54.394 85.1278 54.9618 84.6438 55.4696C84.1599 55.9773 83.6538 56.3946 83.1255 56.7213C82.5947 57.0173 82.0536 57.1908 81.5022 57.2418C81.0405 57.3153 80.6304 57.3069 80.2719 57.2166C79.7658 57.109 79.3126 56.9349 78.9123 56.694C78.5385 56.4199 78.2176 56.0791 77.9495 55.6717C77.4451 54.8848 77.1494 53.9706 77.0623 52.9291C76.9974 52.5029 76.9773 52.088 77.0021 51.6844C77.0268 51.2808 77.0661 50.8759 77.1198 50.4696C77.2589 49.685 77.4535 48.8644 77.7036 48.0078C77.9536 47.1511 78.2472 46.2905 78.5843 45.4258C77.1402 47.0411 75.8541 48.7962 74.7258 50.6909C73.595 52.5551 72.7859 54.4204 72.2987 56.2868C72.3507 56.5598 72.3213 56.7323 72.2103 56.8043C72.0994 56.8763 71.8856 56.9423 71.5689 57.0025C71.0227 57.1147 70.5571 57.1423 70.1722 57.0853C69.3153 56.9793 68.5685 56.6162 67.9318 55.9959C67.2951 55.3756 66.8909 54.564 66.7194 53.5612C66.6494 53.0737 66.6455 52.503 66.7078 51.849C66.7837 51.0084 66.9203 50.1932 67.1174 49.4032C67.312 48.5826 67.5514 47.7733 67.8356 46.9752C66.3258 48.504 64.9726 50.1572 63.7761 51.9348C62.6086 53.7097 61.7773 55.4844 61.2823 57.2589C61.2619 58.0634 61.3208 58.768 61.4591 59.3726C61.5504 59.7655 61.5577 60.0272 61.4808 60.1578C61.4331 60.2857 61.2073 60.3838 60.8036 60.4519C60.2864 60.5615 59.8353 60.5878 59.4504 60.5307C58.5304 60.3688 57.769 60.0071 57.1665 59.4454C56.5588 58.8224 56.1691 58.0095 55.9976 57.0066C55.8721 56.5552 55.8537 55.9858 55.9425 55.2984C56.0696 54.021 56.3525 52.6828 56.7912 51.284C57.1982 49.8572 57.6937 48.4377 58.2774 47.0254C58.8586 45.5825 59.5213 44.2401 60.2655 42.9983C61.0071 41.7258 61.7629 40.6217 62.5327 39.6862C62.7708 39.3864 63.0469 39.1911 63.361 39.1003C63.7041 39.0068 64.0378 38.976 64.3621 39.0077C64.6916 39.1007 64.9788 39.2131 65.2237 39.3448C65.4687 39.4765 65.6923 39.7028 65.8946 40.0237Z" fill="#5BB6F4"/>
<path d="M105.086 43.3462C105.237 43.0544 105.411 42.8685 105.609 42.7884C105.836 42.7057 106.042 42.7176 106.226 42.824C106.408 42.8998 106.538 43.0575 106.617 43.2972C106.722 43.5036 106.699 43.7527 106.548 44.0445C106.007 45.2676 105.299 46.5987 104.425 48.0378C103.58 49.4742 102.613 50.8447 101.523 52.1494C100.46 53.4208 99.2805 54.5331 97.9858 55.4863C96.7201 56.4368 95.4104 57.0364 94.0568 57.285C93.1069 57.4655 92.1838 57.4427 91.2877 57.2169C89.946 56.9088 88.9572 56.2747 88.3213 55.3148C87.6539 54.3269 87.2651 53.1743 87.155 51.8571C87.0961 51.1525 87.1084 50.4259 87.192 49.6773C87.2757 48.9287 87.4028 48.1761 87.5735 47.4194C87.9652 45.8088 88.54 44.2893 89.2978 42.861C89.8517 41.791 90.4846 40.791 91.1963 39.8608C91.9056 38.9 92.6566 38.0897 93.4495 37.4299C94.2688 36.7367 95.1035 36.2274 95.9536 35.9018C96.8326 35.5736 97.7032 35.4931 98.5652 35.6604C99.6065 35.8728 100.466 36.3644 101.145 37.1352C101.894 38.0537 102.238 39.195 102.177 40.559C102.141 41.1797 102.021 41.8391 101.816 42.5372C101.64 43.2326 101.348 43.9387 100.94 44.6555C100.31 45.8561 99.4151 47.0501 98.257 48.2376C97.0963 49.3945 95.6364 50.471 93.8774 51.4671C94.1224 51.5988 94.4651 51.6752 94.9054 51.6962C95.9023 51.7275 96.9197 51.4791 97.9575 50.951C99.0243 50.4202 100.006 49.7429 100.902 48.9192C101.827 48.0928 102.658 47.1825 103.393 46.1884C104.129 45.1942 104.693 44.2469 105.086 43.3462ZM92.8173 49.8055C93.9328 48.8072 94.8772 47.6857 95.6504 46.4412C96.4527 45.1939 97.0953 43.9614 97.5783 42.7437C98.1331 41.3341 98.4552 40.1158 98.5448 39.0888C98.6156 38.1871 98.5405 37.6383 98.3195 37.4427C98.3169 37.412 98.3011 37.3981 98.2721 37.4008C98.0348 37.361 97.7391 37.4963 97.3849 37.8069C97.0597 38.1148 96.7013 38.5493 96.3095 39.1103C95.9152 39.6406 95.5154 40.2796 95.11 41.0271C94.7336 41.7719 94.3889 42.5447 94.0757 43.3454C93.5687 44.627 93.1766 45.8827 92.8992 47.1123C92.6961 48.1806 92.6688 49.0784 92.8173 49.8055Z" fill="#5BB6F4"/>
</svg>
