<svg width="20" height="20" viewBox="0 0 20 20" fill="none" xmlns="http://www.w3.org/2000/svg">
<path fill-rule="evenodd" clip-rule="evenodd" d="M9.91835 3.94559C11.0079 3.94559 11.8911 3.06234 11.8911 1.97279C11.8911 0.88325 11.0079 0 9.91835 0C8.82881 0 7.94556 0.88325 7.94556 1.97279C7.94556 3.06234 8.82881 3.94559 9.91835 3.94559ZM1.97279 3.94656C3.06234 3.94656 3.94559 3.06331 3.94559 1.97377C3.94559 0.884226 3.06234 0.000976562 1.97279 0.000976562C0.88325 0.000976562 0 0.884226 0 1.97377C0 3.06331 0.88325 3.94656 1.97279 3.94656ZM19.8367 1.97328C19.8367 3.06282 18.9534 3.94607 17.8639 3.94607C16.7744 3.94607 15.8911 3.06282 15.8911 1.97328C15.8911 0.883738 16.7744 0.000488281 17.8639 0.000488281C18.9534 0.000488281 19.8367 0.883738 19.8367 1.97328ZM1.97279 11.8925C3.06234 11.8925 3.94559 11.0093 3.94559 9.91973C3.94559 8.83019 3.06234 7.94694 1.97279 7.94694C0.88325 7.94694 0 8.83019 0 9.91973C0 11.0093 0.88325 11.8925 1.97279 11.8925ZM11.8911 9.91957C11.8911 11.0091 11.0079 11.8924 9.91835 11.8924C8.82881 11.8924 7.94556 11.0091 7.94556 9.91957C7.94556 8.83003 8.82881 7.94678 9.91835 7.94678C11.0079 7.94678 11.8911 8.83003 11.8911 9.91957ZM17.8639 11.8921C18.9534 11.8921 19.8367 11.0089 19.8367 9.91936C19.8367 8.82981 18.9534 7.94656 17.8639 7.94656C16.7744 7.94656 15.8911 8.82981 15.8911 9.91936C15.8911 11.0089 16.7744 11.8921 17.8639 11.8921ZM3.94559 17.8656C3.94559 18.9552 3.06234 19.8384 1.97279 19.8384C0.88325 19.8384 0 18.9552 0 17.8656C0 16.7761 0.88325 15.8929 1.97279 15.8929C3.06234 15.8929 3.94559 16.7761 3.94559 17.8656ZM9.91835 19.8384C11.0079 19.8384 11.8911 18.9552 11.8911 17.8656C11.8911 16.7761 11.0079 15.8929 9.91835 15.8929C8.82881 15.8929 7.94556 16.7761 7.94556 17.8656C7.94556 18.9552 8.82881 19.8384 9.91835 19.8384ZM19.8367 17.8656C19.8367 18.9552 18.9534 19.8384 17.8639 19.8384C16.7744 19.8384 15.8911 18.9552 15.8911 17.8656C15.8911 16.7761 16.7744 15.8929 17.8639 15.8929C18.9534 15.8929 19.8367 16.7761 19.8367 17.8656Z" fill="white"/>
</svg>
