<svg width="174" height="159" viewBox="0 0 174 159" fill="none" xmlns="http://www.w3.org/2000/svg">
<g filter="url(#filter0_dd)">
<circle cx="87" cy="42" r="27" fill="#0284DE"/>
</g>
<path fill-rule="evenodd" clip-rule="evenodd" d="M86.9184 35.9456C88.0079 35.9456 88.8911 35.0623 88.8911 33.9728C88.8911 32.8832 88.0079 32 86.9184 32C85.8288 32 84.9456 32.8832 84.9456 33.9728C84.9456 35.0623 85.8288 35.9456 86.9184 35.9456ZM78.9728 35.9466C80.0623 35.9466 80.9456 35.0633 80.9456 33.9738C80.9456 32.8842 80.0623 32.001 78.9728 32.001C77.8832 32.001 77 32.8842 77 33.9738C77 35.0633 77.8832 35.9466 78.9728 35.9466ZM96.8367 33.9733C96.8367 35.0628 95.9534 35.9461 94.8639 35.9461C93.7744 35.9461 92.8911 35.0628 92.8911 33.9733C92.8911 32.8837 93.7744 32.0005 94.8639 32.0005C95.9534 32.0005 96.8367 32.8837 96.8367 33.9733ZM78.9728 43.8925C80.0623 43.8925 80.9456 43.0093 80.9456 41.9197C80.9456 40.8302 80.0623 39.9469 78.9728 39.9469C77.8832 39.9469 77 40.8302 77 41.9197C77 43.0093 77.8832 43.8925 78.9728 43.8925ZM88.8911 41.9196C88.8911 43.0091 88.0079 43.8924 86.9184 43.8924C85.8288 43.8924 84.9456 43.0091 84.9456 41.9196C84.9456 40.83 85.8288 39.9468 86.9184 39.9468C88.0079 39.9468 88.8911 40.83 88.8911 41.9196ZM94.8639 43.8921C95.9534 43.8921 96.8367 43.0089 96.8367 41.9194C96.8367 40.8298 95.9534 39.9466 94.8639 39.9466C93.7744 39.9466 92.8911 40.8298 92.8911 41.9194C92.8911 43.0089 93.7744 43.8921 94.8639 43.8921ZM80.9456 49.8656C80.9456 50.9552 80.0623 51.8384 78.9728 51.8384C77.8832 51.8384 77 50.9552 77 49.8656C77 48.7761 77.8832 47.8929 78.9728 47.8929C80.0623 47.8929 80.9456 48.7761 80.9456 49.8656ZM86.9184 51.8384C88.0079 51.8384 88.8911 50.9552 88.8911 49.8656C88.8911 48.7761 88.0079 47.8929 86.9184 47.8929C85.8288 47.8929 84.9456 48.7761 84.9456 49.8656C84.9456 50.9552 85.8288 51.8384 86.9184 51.8384ZM96.8367 49.8656C96.8367 50.9552 95.9534 51.8384 94.8639 51.8384C93.7744 51.8384 92.8911 50.9552 92.8911 49.8656C92.8911 48.7761 93.7744 47.8929 94.8639 47.8929C95.9534 47.8929 96.8367 48.7761 96.8367 49.8656Z" fill="white"/>
<defs>
<filter id="filter0_dd" x="0" y="-15" width="174" height="174" filterUnits="userSpaceOnUse" color-interpolation-filters="sRGB">
<feFlood flood-opacity="0" result="BackgroundImageFix"/>
<feColorMatrix in="SourceAlpha" type="matrix" values="0 0 0 0 0 0 0 0 0 0 0 0 0 0 0 0 0 0 127 0"/>
<feOffset dy="20"/>
<feGaussianBlur stdDeviation="10"/>
<feColorMatrix type="matrix" values="0 0 0 0 0 0 0 0 0 0 0 0 0 0 0 0 0 0 0.1 0"/>
<feBlend mode="normal" in2="BackgroundImageFix" result="effect1_dropShadow"/>
<feColorMatrix in="SourceAlpha" type="matrix" values="0 0 0 0 0 0 0 0 0 0 0 0 0 0 0 0 0 0 127 0"/>
<feOffset dy="30"/>
<feGaussianBlur stdDeviation="30"/>
<feColorMatrix type="matrix" values="0 0 0 0 0.00392157 0 0 0 0 0.407843 0 0 0 0 1 0 0 0 0.2 0"/>
<feBlend mode="normal" in2="effect1_dropShadow" result="effect2_dropShadow"/>
<feBlend mode="normal" in="SourceGraphic" in2="effect2_dropShadow" result="shape"/>
</filter>
</defs>
</svg>
