<svg width="24" height="24" viewBox="0 0 24 24" fill="none" xmlns="http://www.w3.org/2000/svg">
<path d="M23.6665 19.9568L20.2828 23.3134C19.7833 23.8257 19.1212 23.9992 18.4765 24C15.625 23.9146 12.9298 22.5139 10.7168 21.0757C7.0844 18.4331 3.75148 15.1564 1.65968 11.1966C0.857404 9.53618 -0.0839564 7.41756 0.0059836 5.56418C0.0140036 4.86698 0.201884 4.18272 0.692904 3.73332L4.07662 0.351297C4.77926 -0.246363 5.45876 -0.0397228 5.9084 0.656437L8.63062 5.81848C8.91714 6.43002 8.75278 7.08526 8.3253 7.52224L7.07866 8.76824C7.0017 8.87366 6.9527 8.99366 6.95146 9.12426C7.4295 10.9747 8.87772 12.6802 10.1571 13.854C11.4364 15.0277 12.8116 16.6179 14.5966 16.9944C14.8173 17.0559 15.0875 17.0776 15.2454 16.9308L16.6956 15.456C17.1955 15.0771 17.9173 14.8919 18.451 15.2017H18.4764L23.3866 18.1005C24.1075 18.5524 24.1826 19.4256 23.6665 19.9568Z" fill="white"/>
</svg>
