<svg width="24" height="25" viewBox="0 0 24 25" fill="none" xmlns="http://www.w3.org/2000/svg">
<path fill-rule="evenodd" clip-rule="evenodd" d="M17.2873 15.4967C18.5329 13.873 19.2732 11.8413 19.2732 9.63662C19.2732 4.31446 14.9588 0 9.63662 0C4.31446 0 0 4.31446 0 9.63662C0 14.9588 4.31446 19.2732 9.63662 19.2732C11.6713 19.2732 13.5588 18.6426 15.1141 17.5662L21.8685 24.3206L23.9899 22.1993L17.2873 15.4967ZM16.2732 9.63662C16.2732 13.3019 13.3019 16.2732 9.63662 16.2732C5.97131 16.2732 3 13.3019 3 9.63662C3 5.97131 5.97131 3 9.63662 3C13.3019 3 16.2732 5.97131 16.2732 9.63662Z" fill="#0284DE"/>
</svg>
