<svg width="30" height="31" viewBox="0 0 30 31" fill="none" xmlns="http://www.w3.org/2000/svg">
<path d="M14.726 0.836319C6.59464 0.836319 -6.10352e-05 7.43102 -6.10352e-05 15.5624C-6.10352e-05 23.6937 6.59464 30.2884 14.726 30.2884C22.8573 30.2884 29.452 23.6937 29.452 15.5624C29.452 7.43102 22.8573 0.836319 14.726 0.836319ZM14.726 27.7273C8.00322 27.7273 2.56099 22.2851 2.56099 15.5624C2.56099 8.8396 8.00322 3.39737 14.726 3.39737C21.4487 3.39737 26.891 8.8396 26.891 15.5624C26.891 22.2851 21.4487 27.7273 14.726 27.7273ZM19.624 18.6356C20.1362 19.1479 20.1362 19.9482 19.624 20.4604C19.3679 20.7165 19.0477 20.8445 18.7276 20.8445C18.4075 20.8445 18.0873 20.7165 17.8312 20.4604L13.8616 16.4907C13.6055 16.2346 13.4775 15.9145 13.4775 15.5944V7.97526C13.4775 7.27097 14.0537 6.69473 14.758 6.69473C15.4623 6.69473 16.0385 7.27097 16.0385 7.97526V15.0822L19.624 18.6356Z" fill="#B3DAF5"/>
</svg>
