<svg width="19" height="15" viewBox="0 0 19 15" fill="none" xmlns="http://www.w3.org/2000/svg">
<path d="M18.1133 1.77067C17.4439 2.05174 16.7307 2.23805 15.987 2.32851C16.752 1.89128 17.3359 1.2042 17.6104 0.37605C16.8972 0.783127 16.1097 1.07067 15.2704 1.23113C14.5932 0.54082 13.6279 0.113281 12.5749 0.113281C10.5319 0.113281 8.88716 1.70067 8.88716 3.64667C8.88716 3.92667 8.91191 4.1959 8.97266 4.4522C5.90478 4.30897 3.19016 2.90144 1.36653 0.757281C1.04816 1.28605 0.861406 1.89128 0.861406 2.54282C0.861406 3.7662 1.51953 4.85067 2.50053 5.47851C1.90766 5.46774 1.32603 5.30297 0.833281 5.04344C0.833281 5.0542 0.833281 5.0682 0.833281 5.0822C0.833281 6.79882 2.11241 8.22467 3.78978 8.55313C3.48941 8.63174 3.16203 8.66944 2.82228 8.66944C2.58603 8.66944 2.34753 8.65651 2.12366 8.60913C2.60178 10.0081 3.95853 11.0365 5.57178 11.0699C4.31628 12.0101 2.72216 12.5765 0.996406 12.5765C0.693781 12.5765 0.403531 12.5636 0.113281 12.5281C1.74791 13.5371 3.68516 14.1133 5.77428 14.1133C12.5648 14.1133 16.2773 8.72867 16.2773 4.06128C16.2773 3.90513 16.2717 3.75436 16.2638 3.60467C16.9962 3.10713 17.6115 2.48574 18.1133 1.77067Z" fill="white"/>
</svg>
