<svg width="19" height="12" viewBox="0 0 19 12" fill="none" xmlns="http://www.w3.org/2000/svg">
<path d="M18.0178 10.0475C17.996 9.99718 17.9757 9.95544 17.9568 9.92201C17.6445 9.31955 17.0477 8.58009 16.1668 7.70339L16.1482 7.68332L16.1389 7.67347L16.1294 7.66338H16.12C15.7202 7.25515 15.467 6.98066 15.361 6.84013C15.167 6.57243 15.1235 6.30146 15.2295 6.0269C15.3045 5.81946 15.5858 5.38138 16.073 4.71205C16.3293 4.35733 16.5322 4.07303 16.6821 3.85884C17.7631 2.31958 18.2317 1.33596 18.088 0.907619L18.0321 0.807521C17.9946 0.747258 17.8978 0.692128 17.7418 0.641851C17.5854 0.591679 17.3855 0.583381 17.1418 0.616818L14.4428 0.636788C14.399 0.620193 14.3366 0.62174 14.2553 0.641851C14.174 0.661962 14.1334 0.672053 14.1334 0.672053L14.0864 0.697191L14.0491 0.727393C14.0179 0.747363 13.9835 0.782488 13.946 0.832695C13.9087 0.882727 13.8774 0.941442 13.8525 1.00835C13.5586 1.8181 13.2246 2.57096 12.8496 3.2669C12.6184 3.68189 12.4061 4.04153 12.2122 4.34604C12.0186 4.65045 11.8561 4.87473 11.725 5.0185C11.5937 5.16241 11.4752 5.27769 11.3688 5.36478C11.2625 5.45191 11.1814 5.48872 11.1252 5.47525C11.069 5.46179 11.0159 5.44842 10.9658 5.43506C10.8783 5.3748 10.808 5.29285 10.755 5.18913C10.7018 5.08541 10.6659 4.95486 10.6472 4.79759C10.6285 4.64022 10.6175 4.50486 10.6144 4.39105C10.6114 4.27738 10.6128 4.1166 10.6191 3.90916C10.6256 3.70161 10.6285 3.56119 10.6285 3.48756C10.6285 3.23322 10.6332 2.95719 10.6425 2.65939C10.6519 2.36159 10.6596 2.12564 10.666 1.95181C10.6723 1.77781 10.6753 1.59372 10.6753 1.39964C10.6753 1.20556 10.6643 1.05335 10.6425 0.942883C10.6209 0.832554 10.5879 0.725459 10.5443 0.621634C10.5005 0.517915 10.4363 0.437682 10.3522 0.380724C10.2679 0.323836 10.163 0.278692 10.0382 0.24515C9.70707 0.164882 9.28536 0.12146 8.77293 0.11471C7.61088 0.101349 6.86421 0.181723 6.53307 0.355725C6.40187 0.429243 6.28314 0.529693 6.17698 0.656758C6.06449 0.80404 6.0488 0.884414 6.13001 0.897634C6.50494 0.957791 6.77036 1.1017 6.92658 1.32921L6.98287 1.44977C7.02666 1.53676 7.07038 1.69075 7.11414 1.91155C7.15783 2.13235 7.18603 2.3766 7.19844 2.64417C7.22962 3.13277 7.22962 3.55103 7.19844 3.89896C7.16715 4.24704 7.13761 4.51801 7.10941 4.71209C7.08122 4.90617 7.03907 5.06343 6.98287 5.18385C6.92658 5.30431 6.88912 5.37793 6.87035 5.40465C6.85161 5.43137 6.83598 5.44821 6.82357 5.45482C6.74236 5.48815 6.6579 5.50514 6.57049 5.50514C6.48294 5.50514 6.37679 5.45823 6.25186 5.3645C6.12696 5.27077 5.99733 5.14201 5.86298 4.97803C5.72862 4.81401 5.5771 4.58481 5.40835 4.29039C5.23972 3.99596 5.06477 3.64799 4.88357 3.24648L4.73366 2.95529C4.63994 2.76796 4.51192 2.4952 4.34947 2.13724C4.18692 1.77914 4.04325 1.43276 3.91835 1.09815C3.86842 0.957615 3.79341 0.850626 3.69346 0.777003L3.64655 0.746801C3.61537 0.72008 3.56531 0.691706 3.49664 0.66147C3.42787 0.631268 3.35612 0.60961 3.28108 0.596284L0.713195 0.616255C0.45079 0.616255 0.272746 0.679928 0.178997 0.807099L0.141478 0.867256C0.122735 0.900763 0.113281 0.954275 0.113281 1.02793C0.113281 1.10156 0.132024 1.19192 0.169544 1.29891C0.544407 2.24258 0.952064 3.15267 1.39251 4.02933C1.83296 4.90599 2.2157 5.61216 2.54051 6.14721C2.86538 6.68265 3.19652 7.18799 3.53393 7.66299C3.87134 8.13817 4.09468 8.44269 4.20396 8.57647C4.31336 8.71049 4.3993 8.81069 4.46177 8.8776L4.69611 9.11848C4.84605 9.27912 5.06624 9.47151 5.35678 9.69565C5.64738 9.91993 5.9691 10.1407 6.3221 10.3584C6.67517 10.5757 7.08591 10.7531 7.55456 10.8902C8.02314 11.0275 8.47921 11.0826 8.92284 11.056H10.0006C10.2192 11.0358 10.3848 10.9622 10.4974 10.8351L10.5347 10.7848C10.5597 10.7449 10.5832 10.6828 10.6049 10.5993C10.6268 10.5157 10.6377 10.4235 10.6377 10.3233C10.6313 10.0356 10.6517 9.77627 10.6985 9.54542C10.7452 9.31463 10.7984 9.14063 10.858 9.02344C10.9175 8.90636 10.9847 8.80757 11.0594 8.72747C11.1343 8.64721 11.1877 8.59858 11.219 8.58184C11.2501 8.565 11.275 8.55358 11.2937 8.54672C11.4437 8.49321 11.6201 8.54503 11.8234 8.70244C12.0265 8.85971 12.2169 9.05389 12.3951 9.28468C12.5732 9.51567 12.7872 9.77483 13.037 10.0625C13.2871 10.3504 13.5057 10.5643 13.693 10.705L13.8804 10.8255C14.0055 10.9059 14.168 10.9795 14.368 11.0464C14.5676 11.1133 14.7425 11.13 14.8926 11.0966L17.2917 11.0565C17.529 11.0565 17.7137 11.0144 17.8446 10.9309C17.9759 10.8473 18.0538 10.7551 18.079 10.6549C18.1041 10.5545 18.1054 10.4407 18.0837 10.3134C18.0615 10.1864 18.0396 10.0977 18.0178 10.0475Z" fill="white"/>
</svg>
